<svg xmlns="http://www.w3.org/2000/svg" xmlns:xlink="http://www.w3.org/1999/xlink" id="Layer_1" x="0" y="0" version="1.1" viewBox="0 0 48 32" xml:space="preserve" style="enable-background:new 0 0 48 32"><style type="text/css">.st0{fill:#ff4f1f}</style><title>email</title><g><g id="email"><g><path d="M4,32c-2.2,0-4-1.8-4-4V4c0-2.2,1.8-4,4-4h40c2.2,0,4,1.8,4,4v0.4L28.2,24.2c-2.3,2.3-6.1,2.3-8.4,0L5.3,9.7 l1.4-1.4l14.5,14.5c1.5,1.5,4.1,1.5,5.6,0L46,3.6C45.8,2.7,45,2,44,2H4C2.9,2,2,2.9,2,4v24c0,1.1,0.9,2,2,2h40.1 c1.1,0,1.9-0.9,1.9-2V11h2v17c0,2.2-1.7,3.9-3.9,4H4z" class="st0"/></g></g></g></svg>